<?xml version="1.0" encoding="UTF-8" standalone="no"?>
<!DOCTYPE svg PUBLIC "-//W3C//DTD SVG 1.1//EN"
 "http://www.w3.org/Graphics/SVG/1.1/DTD/svg11.dtd">
<!-- Generated by graphviz version 2.36.0 (20140111.2315)
 -->
<!-- Title: pipeline Pages: 1 -->
<svg width="968pt" height="440pt"
 viewBox="0.00 0.00 968.00 440.00" xmlns="http://www.w3.org/2000/svg" xmlns:xlink="http://www.w3.org/1999/xlink">
<g id="graph0" class="graph" transform="scale(1 1) rotate(0) translate(4 436)">
<title>pipeline</title>
<g id="clust1" class="cluster"><title>cluster_0</title>
<polygon fill="#029fc4" stroke="#029fc4" points="246,-139 246,-208 838,-208 838,-139 246,-139"/>
<text text-anchor="middle" x="277.5" y="-197.6" font-family="Helvetica,sans-Serif" font-size="8.00" fill="white">Main pipeline</text>
</g>
<g id="clust2" class="cluster"><title>cluster_1</title>
<polygon fill="none" stroke="black" points="358,-241 358,-424 575,-424 575,-241 358,-241"/>
<text text-anchor="middle" x="413" y="-413.6" font-family="Helvetica,sans-Serif" font-size="8.00">Templates and other input</text>
</g>
<g id="clust3" class="cluster"><title>cluster_2</title>
<polygon fill="none" stroke="black" points="860,-139 860,-262 952,-262 952,-139 860,-139"/>
<text text-anchor="middle" x="880.5" y="-251.6" font-family="Helvetica,sans-Serif" font-size="8.00">Output</text>
</g>
<g id="clust4" class="cluster"><title>cluster_3</title>
<polygon fill="none" stroke="black" points="84,-139 84,-316 202,-316 202,-139 84,-139"/>
<text text-anchor="middle" x="125.5" y="-305.6" font-family="Helvetica,sans-Serif" font-size="8.00">Source documents</text>
</g>
<g id="clust5" class="cluster"><title>cluster_4</title>
<polygon fill="none" stroke="black" points="500,-8 500,-131 576,-131 576,-8 500,-8"/>
<text text-anchor="middle" x="538" y="-120.6" font-family="Helvetica,sans-Serif" font-size="8.00">External engines</text>
</g>
<!-- xetex1 -->
<g id="node1" class="node"><title>xetex1</title>
<polygon fill="#56bfd8" stroke="#56bfd8" points="830,-183 776,-183 776,-147 830,-147 830,-183"/>
<text text-anchor="middle" x="803" y="-163.1" font-family="Helvetica,sans-Serif" font-size="8.00" fill="white">XeTeX</text>
</g>
<!-- PDF document -->
<g id="node11" class="node"><title>PDF document</title>
<polygon fill="#abdfeb" stroke="#abdfeb" points="940.5,-183 871.5,-183 871.5,-147 940.5,-147 940.5,-183"/>
<text text-anchor="middle" x="906" y="-163.1" font-family="Helvetica,sans-Serif" font-size="8.00">PDF document</text>
</g>
<!-- xetex1&#45;&gt;PDF document -->
<g id="edge24" class="edge"><title>xetex1&#45;&gt;PDF document</title>
<path fill="none" stroke="black" d="M830.01,-165C839.577,-165 850.692,-165 861.387,-165"/>
<polygon fill="black" stroke="black" points="861.447,-168.5 871.447,-165 861.447,-161.5 861.447,-168.5"/>
</g>
<!-- nbconvert -->
<g id="node2" class="node"><title>nbconvert</title>
<polygon fill="#56bfd8" stroke="#56bfd8" points="308,-183 254,-183 254,-147 308,-147 308,-183"/>
<text text-anchor="middle" x="281" y="-163.1" font-family="Helvetica,sans-Serif" font-size="8.00" fill="white">nbconvert</text>
</g>
<!-- pweave -->
<g id="node4" class="node"><title>pweave</title>
<polygon fill="#56bfd8" stroke="#56bfd8" points="434,-183 380,-183 380,-147 434,-147 434,-183"/>
<text text-anchor="middle" x="407" y="-163.1" font-family="Helvetica,sans-Serif" font-size="8.00" fill="white">pweave</text>
</g>
<!-- nbconvert&#45;&gt;pweave -->
<g id="edge11" class="edge"><title>nbconvert&#45;&gt;pweave</title>
<path fill="none" stroke="black" d="M308.297,-165C326.135,-165 349.953,-165 369.607,-165"/>
<polygon fill="black" stroke="black" points="369.741,-168.5 379.741,-165 369.741,-161.5 369.741,-168.5"/>
<text text-anchor="middle" x="337" y="-167.6" font-family="Helvetica,sans-Serif" font-size="8.00"> .mdw</text>
</g>
<!-- pandoc -->
<g id="node3" class="node"><title>pandoc</title>
<polygon fill="#56bfd8" stroke="#56bfd8" points="724,-183 670,-183 670,-147 724,-147 724,-183"/>
<text text-anchor="middle" x="697" y="-163.1" font-family="Helvetica,sans-Serif" font-size="8.00" fill="white">pandoc</text>
</g>
<!-- pandoc&#45;&gt;xetex1 -->
<g id="edge22" class="edge"><title>pandoc&#45;&gt;xetex1</title>
<path fill="none" stroke="black" d="M724.244,-165C736.807,-165 752.054,-165 765.706,-165"/>
<polygon fill="black" stroke="black" points="765.765,-168.5 775.765,-165 765.765,-161.5 765.765,-168.5"/>
<text text-anchor="middle" x="750" y="-167.6" font-family="Helvetica,sans-Serif" font-size="8.00"> .tex</text>
</g>
<!-- Stand&#45;alone\nHTML document -->
<g id="node12" class="node"><title>Stand&#45;alone\nHTML document</title>
<polygon fill="#abdfeb" stroke="#abdfeb" points="943.5,-237 868.5,-237 868.5,-201 943.5,-201 943.5,-237"/>
<text text-anchor="middle" x="906" y="-221.6" font-family="Helvetica,sans-Serif" font-size="8.00">Stand&#45;alone</text>
<text text-anchor="middle" x="906" y="-212.6" font-family="Helvetica,sans-Serif" font-size="8.00">HTML document</text>
</g>
<!-- pandoc&#45;&gt;Stand&#45;alone\nHTML document -->
<g id="edge23" class="edge"><title>pandoc&#45;&gt;Stand&#45;alone\nHTML document</title>
<path fill="none" stroke="black" d="M724.095,-174.963C739.126,-180.467 758.459,-187.15 776,-192 803.039,-199.477 833.768,-205.985 858.451,-210.738"/>
<polygon fill="black" stroke="black" points="857.806,-214.178 868.283,-212.6 859.109,-207.3 857.806,-214.178"/>
<text text-anchor="middle" x="803" y="-209.6" font-family="Helvetica,sans-Serif" font-size="8.00"> .html</text>
</g>
<!-- knitr -->
<g id="node5" class="node"><title>knitr</title>
<polygon fill="#56bfd8" stroke="#56bfd8" points="565,-183 511,-183 511,-147 565,-147 565,-183"/>
<text text-anchor="middle" x="538" y="-163.1" font-family="Helvetica,sans-Serif" font-size="8.00" fill="white">knitr</text>
</g>
<!-- pweave&#45;&gt;knitr -->
<g id="edge15" class="edge"><title>pweave&#45;&gt;knitr</title>
<path fill="none" stroke="black" d="M434.105,-165C453.251,-165 479.494,-165 500.685,-165"/>
<polygon fill="black" stroke="black" points="500.934,-168.5 510.934,-165 500.934,-161.5 500.934,-168.5"/>
<text text-anchor="middle" x="477" y="-167.6" font-family="Helvetica,sans-Serif" font-size="8.00"> .Rmd</text>
</g>
<!-- nbconvert\ntemplate -->
<g id="node10" class="node"><title>nbconvert\ntemplate</title>
<polygon fill="#abdfeb" stroke="#abdfeb" points="434,-285 380,-285 380,-249 434,-249 434,-285"/>
<text text-anchor="middle" x="407" y="-269.6" font-family="Helvetica,sans-Serif" font-size="8.00">nbconvert</text>
<text text-anchor="middle" x="407" y="-260.6" font-family="Helvetica,sans-Serif" font-size="8.00">template</text>
</g>
<!-- pweave&#45;&gt;nbconvert\ntemplate -->
<!-- matplotlib -->
<g id="node16" class="node"><title>matplotlib</title>
<polygon fill="#abdfeb" stroke="#abdfeb" points="565,-52 511,-52 511,-16 565,-16 565,-52"/>
<text text-anchor="middle" x="538" y="-32.1" font-family="Helvetica,sans-Serif" font-size="8.00">matplotlib</text>
</g>
<!-- pweave&#45;&gt;matplotlib -->
<g id="edge13" class="edge"><title>pweave&#45;&gt;matplotlib</title>
<path fill="none" stroke="black" d="M422.216,-146.632C439.429,-124.964 469.873,-88.4243 500,-61 500.959,-60.1268 501.947,-59.2552 502.954,-58.3887"/>
<polygon fill="black" stroke="black" points="505.395,-60.9154 510.958,-51.8984 500.986,-55.4784 505.395,-60.9154"/>
</g>
<!-- knitr&#45;&gt;pandoc -->
<g id="edge16" class="edge"><title>knitr&#45;&gt;pandoc</title>
<path fill="none" stroke="black" d="M565.278,-165C591.167,-165 630.926,-165 659.799,-165"/>
<polygon fill="black" stroke="black" points="659.898,-168.5 669.898,-165 659.898,-161.5 659.898,-168.5"/>
<text text-anchor="middle" x="619" y="-167.6" font-family="Helvetica,sans-Serif" font-size="8.00"> .md</text>
</g>
<!-- graphviz -->
<g id="node17" class="node"><title>graphviz</title>
<polygon fill="#abdfeb" stroke="#abdfeb" points="565,-106 511,-106 511,-70 565,-70 565,-106"/>
<text text-anchor="middle" x="538" y="-86.1" font-family="Helvetica,sans-Serif" font-size="8.00">graphviz</text>
</g>
<!-- knitr&#45;&gt;graphviz -->
<g id="edge19" class="edge"><title>knitr&#45;&gt;graphviz</title>
<path fill="none" stroke="black" d="M538,-146.577C538,-136.445 538,-126.312 538,-116.179"/>
<polygon fill="black" stroke="black" points="541.5,-116.047 538,-106.047 534.5,-116.047 541.5,-116.047"/>
</g>
<!-- Plots -->
<g id="node20" class="node"><title>Plots</title>
<polygon fill="#abdfeb" stroke="#abdfeb" points="724,-115 670,-115 670,-79 724,-79 724,-115"/>
<text text-anchor="middle" x="697" y="-95.1" font-family="Helvetica,sans-Serif" font-size="8.00">Plots</text>
</g>
<!-- knitr&#45;&gt;Plots -->
<g id="edge17" class="edge"><title>knitr&#45;&gt;Plots</title>
<path fill="none" stroke="black" d="M565.278,-153.618C591.395,-142.307 631.624,-124.883 660.556,-112.352"/>
<polygon fill="black" stroke="black" points="662.113,-115.492 669.898,-108.305 659.33,-109.068 662.113,-115.492"/>
</g>

<g id="node6" class="node"><title>KTH\n\LaTeX\nTemplate</title>
<polygon fill="#abdfeb" stroke="#abdfeb" points="434,-398.5 380,-398.5 380,-357.5 434,-357.5 434,-398.5"/>
<text text-anchor="middle" x="407" y="-385.1" font-family="Helvetica,sans-Serif" font-size="8.00">KTH</text>
<text text-anchor="middle" x="407" y="-376.1" font-family="Helvetica,sans-Serif" font-size="8.00">LaTeX</text>
<text text-anchor="middle" x="407" y="-367.1" font-family="Helvetica,sans-Serif" font-size="8.00">Template</text>
</g>
<!-- Pandoc\nTemplate -->
<g id="node7" class="node"><title>Pandoc\nTemplate</title>
<polygon fill="#abdfeb" stroke="#abdfeb" points="565,-321 511,-321 511,-285 565,-285 565,-321"/>
<text text-anchor="middle" x="538" y="-305.6" font-family="Helvetica,sans-Serif" font-size="8.00">Pandoc</text>
<text text-anchor="middle" x="538" y="-296.6" font-family="Helvetica,sans-Serif" font-size="8.00">Template</text>
</g>
<!-- Ericsson\n\LaTeX\nTemplate&#45;&gt;Pandoc\nTemplate -->
<g id="edge25" class="edge"><title>Ericsson\n\LaTeX\nTemplate&#45;&gt;Pandoc\nTemplate</title>
<path fill="none" stroke="black" d="M434.105,-362.823C453.688,-351.437 480.696,-335.735 502.128,-323.274"/>
<polygon fill="black" stroke="black" points="504.048,-326.207 510.934,-318.155 500.529,-320.155 504.048,-326.207"/>
<text text-anchor="middle" x="477" y="-344.6" font-family="Helvetica,sans-Serif" font-size="8.00">.cls</text>
</g>
<!-- Bibliography -->
<g id="node9" class="node"><title>Bibliography</title>
<polygon fill="#abdfeb" stroke="#abdfeb" points="567,-377 509,-377 509,-341 567,-341 567,-377"/>
<text text-anchor="middle" x="538" y="-357.1" font-family="Helvetica,sans-Serif" font-size="8.00">Bibliography</text>
</g>
<!-- Ericsson\n\LaTeX\nTemplate&#45;&gt;Bibliography -->
<!-- Pandoc\nTemplate&#45;&gt;pandoc -->
<g id="edge26" class="edge"><title>Pandoc\nTemplate&#45;&gt;pandoc</title>
<path fill="none" stroke="black" d="M565.405,-301.093C590.505,-297.969 627.9,-289.729 652,-268 673.666,-248.465 685.049,-216.453 690.761,-193.296"/>
<polygon fill="black" stroke="black" points="694.217,-193.882 693.002,-183.357 687.388,-192.342 694.217,-193.882"/>
<text text-anchor="middle" x="619" y="-299.6" font-family="Helvetica,sans-Serif" font-size="8.00">erimkdoc.template</text>
</g>
<!-- IEEE Citation Style -->
<g id="node8" class="node"><title>IEEE Citation Style</title>
<polygon fill="#abdfeb" stroke="#abdfeb" points="447.5,-339 366.5,-339 366.5,-303 447.5,-303 447.5,-339"/>
<text text-anchor="middle" x="407" y="-319.1" font-family="Helvetica,sans-Serif" font-size="8.00">IEEE Citation Style</text>
</g>
<!-- IEEE Citation Style&#45;&gt;pandoc -->
<g id="edge27" class="edge"><title>IEEE Citation Style&#45;&gt;pandoc</title>
<path fill="none" stroke="black" d="M438.026,-302.855C455.897,-292.187 479.095,-278.565 500,-267 555.624,-236.228 621.364,-202.554 660.815,-182.63"/>
<polygon fill="black" stroke="black" points="662.424,-185.738 669.778,-178.111 659.273,-179.488 662.424,-185.738"/>
<text text-anchor="middle" x="538" y="-269.6" font-family="Helvetica,sans-Serif" font-size="8.00">ieee.csl</text>
</g>
<!-- Bibliography&#45;&gt;pandoc -->
<g id="edge28" class="edge"><title>Bibliography&#45;&gt;pandoc</title>
<path fill="none" stroke="black" d="M567.095,-353.809C592.696,-347.648 629.801,-334.899 652,-310 681.255,-277.186 691.065,-225.426 694.351,-193.437"/>
<polygon fill="black" stroke="black" points="697.844,-193.671 695.234,-183.403 690.871,-193.058 697.844,-193.671"/>
<text text-anchor="middle" x="619" y="-350.6" font-family="Helvetica,sans-Serif" font-size="8.00">.bib</text>
</g>
<!-- nbconvert\ntemplate&#45;&gt;nbconvert -->
<g id="edge9" class="edge"><title>nbconvert\ntemplate&#45;&gt;nbconvert</title>
<path fill="none" stroke="black" d="M379.81,-272.549C362.676,-274.598 340.806,-274.011 326,-262 302.72,-243.116 321.742,-223.641 308,-197 307.065,-195.187 306.016,-193.381 304.889,-191.603"/>
<polygon fill="black" stroke="black" points="307.442,-189.154 298.787,-183.043 301.742,-193.217 307.442,-189.154"/>
</g>
<!-- Markdown + R + Python -->
<g id="node13" class="node"><title>Markdown + R + Python</title>
<polygon fill="#abdfeb" stroke="#abdfeb" points="193.5,-237 92.5,-237 92.5,-201 193.5,-201 193.5,-237"/>
<text text-anchor="middle" x="143" y="-217.1" font-family="Helvetica,sans-Serif" font-size="8.00">Markdown + R + Python</text>
</g>
<!-- Markdown + R + Python&#45;&gt;pweave -->
<g id="edge12" class="edge"><title>Markdown + R + Python&#45;&gt;pweave</title>
<path fill="none" stroke="black" d="M193.779,-212.202C226.424,-207.401 269.95,-200.349 308,-192 328.798,-187.436 351.761,-181.177 370.228,-175.834"/>
<polygon fill="black" stroke="black" points="371.369,-179.146 379.982,-172.976 369.401,-172.429 371.369,-179.146"/>
<text text-anchor="middle" x="281" y="-206.6" font-family="Helvetica,sans-Serif" font-size="8.00"> .mdw</text>
</g>
<!-- Jupyter Notebook -->
<g id="node14" class="node"><title>Jupyter Notebook</title>
<polygon fill="#abdfeb" stroke="#abdfeb" points="182,-183 104,-183 104,-147 182,-147 182,-183"/>
<text text-anchor="middle" x="143" y="-163.1" font-family="Helvetica,sans-Serif" font-size="8.00">Jupyter Notebook</text>
</g>
<!-- Jupyter Notebook&#45;&gt;nbconvert -->
<g id="edge10" class="edge"><title>Jupyter Notebook&#45;&gt;nbconvert</title>
<path fill="none" stroke="black" d="M182.246,-165C201.469,-165 224.645,-165 243.605,-165"/>
<polygon fill="black" stroke="black" points="243.653,-168.5 253.653,-165 243.653,-161.5 243.653,-168.5"/>
<text text-anchor="middle" x="224" y="-167.6" font-family="Helvetica,sans-Serif" font-size="8.00"> .ipynb</text>
</g>
<!-- R Notebook -->
<g id="node15" class="node"><title>R Notebook</title>
<polygon fill="#abdfeb" stroke="#abdfeb" points="171.5,-291 114.5,-291 114.5,-255 171.5,-255 171.5,-291"/>
<text text-anchor="middle" x="143" y="-271.1" font-family="Helvetica,sans-Serif" font-size="8.00">R Notebook</text>
</g>
<!-- R Notebook&#45;&gt;knitr -->
<g id="edge7" class="edge"><title>R Notebook&#45;&gt;knitr</title>
<path fill="none" stroke="black" d="M171.751,-265.944C225.315,-252.251 346.617,-220.876 448,-192 465.618,-186.982 485.101,-181.109 501.335,-176.124"/>
<polygon fill="black" stroke="black" points="502.452,-179.442 510.977,-173.151 500.39,-172.753 502.452,-179.442"/>
<text text-anchor="middle" x="337" y="-228.6" font-family="Helvetica,sans-Serif" font-size="8.00"> .Rmd</text>
</g>
<!-- matplotlib&#45;&gt;Plots -->
<g id="edge14" class="edge"><title>matplotlib&#45;&gt;Plots</title>
<path fill="none" stroke="black" d="M565.278,-44.5448C591.395,-55.0246 631.624,-71.1677 660.556,-82.7772"/>
<polygon fill="black" stroke="black" points="659.314,-86.0499 669.898,-86.5258 661.92,-79.5534 659.314,-86.0499"/>
</g>
<!-- graphviz&#45;&gt;pandoc -->
<g id="edge18" class="edge"><title>graphviz&#45;&gt;pandoc</title>
<path fill="none" stroke="black" stroke-dasharray="5,2" d="M565.278,-100.888C591.395,-113.697 631.624,-133.427 660.556,-147.617"/>
<polygon fill="black" stroke="black" points="659.378,-150.937 669.898,-152.198 662.461,-144.652 659.378,-150.937"/>
</g>
<!-- graphviz&#45;&gt;Plots -->
<g id="edge20" class="edge"><title>graphviz&#45;&gt;Plots</title>
<path fill="none" stroke="black" d="M565.278,-89.5064C591.167,-90.9905 630.926,-93.2696 659.799,-94.9248"/>
<polygon fill="black" stroke="black" points="659.714,-98.4256 669.898,-95.5037 660.114,-91.437 659.714,-98.4256"/>
</g>
<!-- Data -->
<g id="node18" class="node"><title>Data</title>
<polygon fill="#abdfeb" stroke="#abdfeb" points="54,-264 0,-264 0,-228 54,-228 54,-264"/>
<text text-anchor="middle" x="27" y="-244.1" font-family="Helvetica,sans-Serif" font-size="8.00">Data</text>
</g>
<!-- Data&#45;&gt;Markdown + R + Python -->
<g id="edge1" class="edge"><title>Data&#45;&gt;Markdown + R + Python</title>
<path fill="none" stroke="black" d="M54.1539,-239.806C62.6338,-237.797 72.4171,-235.48 82.3088,-233.137"/>
<polygon fill="black" stroke="black" points="83.2681,-236.507 92.1923,-230.797 81.6548,-229.696 83.2681,-236.507"/>
</g>
<!-- Data&#45;&gt;Jupyter Notebook -->
<g id="edge3" class="edge"><title>Data&#45;&gt;Jupyter Notebook</title>
<path fill="none" stroke="black" d="M45.63,-227.748C58.7996,-214.358 75.8708,-197.579 84,-192 87.4514,-189.631 91.1436,-187.375 94.9309,-185.249"/>
<polygon fill="black" stroke="black" points="96.6591,-188.295 103.872,-180.534 93.394,-182.103 96.6591,-188.295"/>
</g>
<!-- Data&#45;&gt;R Notebook -->
<g id="edge5" class="edge"><title>Data&#45;&gt;R Notebook</title>
<path fill="none" stroke="black" d="M54.3252,-261.239C59.9944,-263.924 66.0695,-266.375 72,-268 82.2229,-270.802 93.582,-272.276 104.124,-273.003"/>
<polygon fill="black" stroke="black" points="104.163,-276.509 114.322,-273.501 104.505,-269.517 104.163,-276.509"/>
</g>
<!-- Bright idea -->
<g id="node19" class="node"><title>Bright idea</title>
<polygon fill="#abdfeb" stroke="#abdfeb" points="54,-210 0,-210 0,-174 54,-174 54,-210"/>
<text text-anchor="middle" x="27" y="-190.1" font-family="Helvetica,sans-Serif" font-size="8.00">Bright idea</text>
</g>
<!-- Bright idea&#45;&gt;Markdown + R + Python -->
<g id="edge2" class="edge"><title>Bright idea&#45;&gt;Markdown + R + Python</title>
<path fill="none" stroke="black" d="M54.1539,-198.194C62.6338,-200.203 72.4171,-202.52 82.3088,-204.863"/>
<polygon fill="black" stroke="black" points="81.6548,-208.304 92.1923,-207.203 83.2681,-201.493 81.6548,-208.304"/>
</g>
<!-- Bright idea&#45;&gt;Jupyter Notebook -->
<g id="edge4" class="edge"><title>Bright idea&#45;&gt;Jupyter Notebook</title>
<path fill="none" stroke="black" d="M54.4021,-177.526C60.0657,-174.959 66.1191,-172.599 72,-171 78.9592,-169.108 86.4377,-167.77 93.8244,-166.831"/>
<polygon fill="black" stroke="black" points="94.2042,-170.311 103.783,-165.784 93.4716,-163.349 94.2042,-170.311"/>
</g>
<!-- Bright idea&#45;&gt;R Notebook -->
<g id="edge6" class="edge"><title>Bright idea&#45;&gt;R Notebook</title>
<path fill="none" stroke="black" d="M45.63,-210.252C58.7996,-223.642 75.8708,-240.421 84,-246 90.568,-250.507 98.008,-254.608 105.316,-258.177"/>
<polygon fill="black" stroke="black" points="103.882,-261.37 114.427,-262.403 106.828,-255.02 103.882,-261.37"/>
</g>
<!-- Plots&#45;&gt;xetex1 -->
<g id="edge21" class="edge"><title>Plots&#45;&gt;xetex1</title>
<path fill="none" stroke="black" d="M724.244,-114.159C737.299,-122.696 753.253,-133.127 767.305,-142.315"/>
<polygon fill="black" stroke="black" points="765.48,-145.303 775.765,-147.846 769.31,-139.444 765.48,-145.303"/>
</g>
</g>
</svg>
